<?xml version="1.0" encoding="utf-8" standalone="no"?><!DOCTYPE svg PUBLIC "-//W3C//DTD SVG 1.1//EN" "http://www.w3.org/Graphics/SVG/1.1/DTD/svg11.dtd">
<svg preserveAspectRatio="xMinYMin meet" width="100%" height="100%" viewBox="0 0 525.000 388.125"  version="1.1" xmlns="http://www.w3.org/2000/svg" xmlns:xlink="http://www.w3.org/1999/xlink">
  <desc>Matlab Figure Converted by PLOT2SVG written by Juerg Schwizer</desc>
  <g id="topgroup">
  <rect x="0" y="0" width="525.000" height="388.125" fill="#ffffff" stroke="none" />
  <g id ="ID000000">
  <clipPath id="ID000001">
    <rect x="68.250" y="29.109" width="406.875" height="316.322"/>
  </clipPath>
      <polygon fill="#ffffff" fill-opacity="1.00" stroke="none" stroke-width="0.5pt" stroke-opacity="1.00" stroke-dasharray="none" points="68.250,345.431 475.125,345.431 475.125,29.109 68.250,29.109 "/>
      <polygon fill="#ffffff" fill-opacity="1.00" stroke="none" stroke-width="0.5pt" stroke-opacity="1.00" stroke-dasharray="none" points="68.250,29.109 475.125,29.109 475.125,29.109 68.250,29.109 "/>
      <polygon fill="#ffffff" fill-opacity="1.00" stroke="none" stroke-width="0.5pt" stroke-opacity="1.00" stroke-dasharray="none" points="68.250,345.431 68.250,345.431 68.250,29.109 68.250,29.109 "/>
    <g>
<g id="ID000002" clip-path="url(#ID000001)" >
<g id="ID000003" clip-path="url(#ID000001)" >
      <polyline fill="none" fill-opacity="1.00" stroke="#00008f" stroke-width="0.5pt" stroke-opacity="1.00" stroke-dasharray="none" points="73.037,151.424 73.413,150.772 73.972,150.076 74.626,149.381 74.632,149.376 76.004,148.686 76.228,148.579 77.824,148.287 79.419,148.436 80.110,148.686 81.015,149.012 81.582,149.381 82.519,150.076 82.610,150.153 83.091,150.772 83.527,151.467 83.811,152.162 84.009,152.857 84.198,153.552 84.206,153.628 84.252,154.248 84.241,154.943 84.241,155.638 84.251,156.333 84.234,157.029 84.220,157.724 84.206,157.823 84.078,158.419 83.922,159.114 83.804,159.809 83.626,160.505 83.497,161.200 83.451,161.895 83.389,162.590 83.212,163.285 83.230,163.981 83.242,164.676 83.236,165.371 83.265,166.066 83.404,166.762 83.435,167.457 83.434,168.152 83.465,168.847 83.573,169.542 83.622,170.238 83.746,170.933 83.749,171.628 83.825,172.323 83.914,173.018 83.888,173.714 83.983,174.409 83.988,175.104 83.959,175.799 83.961,176.495 83.923,177.190 83.862,177.885 83.827,178.580 83.832,179.275 83.766,179.971 83.707,180.666 83.532,181.361 83.330,182.056 83.176,182.751 83.011,183.447 82.760,184.142 82.610,184.527 82.418,184.837 82.240,185.532 81.636,186.227 81.167,186.923 81.015,187.094 80.184,187.618 79.419,188.061 78.132,188.313 77.824,188.358 77.483,188.313 76.228,188.075 75.484,187.618 74.632,187.002 74.571,186.923 74.193,186.227 73.724,185.532 73.656,184.837 73.396,184.142 73.176,183.447 73.063,182.751 73.037,182.543 72.997,182.056 72.893,181.361 72.797,180.666 72.799,179.971 72.779,179.275 72.826,178.580 72.831,177.885 72.808,177.190 72.802,176.495 72.823,175.799 72.803,175.104 72.819,174.409 72.913,173.714 72.904,173.018 72.987,172.323 73.037,171.897 73.085,171.628 73.135,170.933 73.276,170.238 73.368,169.542 73.515,168.847 73.603,168.152 73.635,167.457 73.682,166.762 73.814,166.066 73.827,165.371 73.827,164.676 73.823,163.981 73.843,163.285 73.696,162.590 73.620,161.895 73.580,161.200 73.439,160.505 73.246,159.809 73.131,159.114 73.037,158.764 72.974,158.419 72.855,157.724 72.822,157.029 72.765,156.333 72.741,155.638 72.702,154.943 72.658,154.248 72.661,153.552 72.760,152.857 72.858,152.162 73.020,151.467 73.037,151.424 "/>
</g>
<g id="ID000004" clip-path="url(#ID000001)" >
      <polyline fill="none" fill-opacity="1.00" stroke="#00008f" stroke-width="0.5pt" stroke-opacity="1.00" stroke-dasharray="none" points="468.743,120.521 468.812,120.877 468.897,121.573 468.944,122.268 468.912,122.963 468.840,123.658 468.749,124.354 468.743,124.377 468.529,125.049 468.323,125.744 468.065,126.439 467.645,127.134 467.147,127.749 467.074,127.830 466.250,128.525 465.551,128.914 464.932,129.220 463.956,129.611 463.109,129.915 462.360,130.133 460.765,130.571 460.628,130.610 459.169,130.956 457.877,131.306 457.574,131.378 455.978,131.836 455.467,132.001 454.382,132.385 453.568,132.696 452.787,133.046 451.990,133.391 451.191,133.825 450.619,134.087 449.596,134.640 449.245,134.782 448.000,135.385 447.713,135.477 446.404,135.859 444.809,136.117 443.678,136.172 443.213,136.198 442.659,136.172 441.618,136.121 440.022,135.867 438.996,135.477 438.426,135.266 437.609,134.782 436.831,134.525 435.774,134.087 435.235,133.953 433.640,133.557 432.930,133.391 432.044,133.238 430.449,132.997 428.853,132.809 427.644,132.696 427.257,132.654 425.662,132.500 424.066,132.368 422.471,132.250 420.875,132.141 419.279,132.031 418.831,132.001 417.684,131.897 416.088,131.746 414.493,131.559 412.993,131.306 412.897,131.284 411.301,130.797 410.918,130.610 409.743,129.915 409.706,129.891 408.902,129.220 408.213,128.525 408.110,128.422 407.621,127.830 406.988,127.134 406.515,126.612 406.384,126.439 405.794,125.744 405.231,125.049 404.919,124.646 404.730,124.354 404.285,123.658 403.884,122.963 403.520,122.268 403.324,121.892 403.190,121.573 402.932,120.877 402.709,120.182 402.547,119.487 402.396,118.792 402.294,118.097 402.288,117.401 402.343,116.706 402.416,116.011 402.564,115.316 402.743,114.621 402.991,113.925 403.277,113.230 403.324,113.145 403.742,112.535 404.364,111.840 404.919,111.257 405.043,111.144 405.919,110.449 406.515,110.031 406.953,109.754 408.110,109.105 408.200,109.059 409.694,108.364 409.706,108.359 411.301,107.723 411.448,107.668 412.897,107.187 413.582,106.973 414.493,106.722 416.088,106.310 416.224,106.278 417.684,105.980 419.279,105.680 419.846,105.583 420.875,105.428 422.471,105.210 424.066,105.009 425.126,104.888 425.662,104.831 427.257,104.678 428.853,104.533 430.449,104.397 432.044,104.270 433.128,104.192 433.640,104.134 435.235,103.978 436.831,103.845 438.426,103.747 440.022,103.696 441.618,103.710 443.213,103.812 444.809,104.026 445.584,104.192 446.404,104.288 448.000,104.535 449.596,104.840 449.803,104.888 451.191,105.139 452.787,105.459 453.350,105.583 454.382,105.816 455.978,106.203 456.265,106.278 457.574,106.660 458.566,106.973 459.169,107.196 460.322,107.668 460.765,107.872 461.717,108.364 462.360,108.748 462.821,109.059 463.753,109.754 463.956,109.932 464.475,110.449 465.103,111.144 465.551,111.697 465.656,111.840 466.067,112.535 466.459,113.230 466.865,113.925 467.147,114.554 467.175,114.621 467.438,115.316 467.642,116.011 467.834,116.706 468.007,117.401 468.184,118.097 468.348,118.792 468.515,119.487 468.677,120.182 468.743,120.521 "/>
</g>
<g id="ID000005" clip-path="url(#ID000001)" >
      <polyline fill="none" fill-opacity="1.00" stroke="#00008f" stroke-width="0.5pt" stroke-opacity="1.00" stroke-dasharray="none" points="468.743,171.825 469.012,172.323 469.350,173.018 469.547,173.714 469.876,174.409 470.046,175.104 470.070,175.799 469.970,176.495 469.901,177.190 469.740,177.885 469.567,178.580 469.399,179.275 469.127,179.971 468.854,180.666 468.743,180.967 468.398,181.361 467.551,182.056 467.147,182.328 465.718,182.056 465.551,182.021 464.980,181.361 464.503,180.666 463.978,179.971 463.956,179.941 463.698,179.275 463.501,178.580 463.306,177.885 463.116,177.190 463.022,176.495 462.896,175.799 462.870,175.104 463.000,174.409 463.285,173.714 463.445,173.018 463.758,172.323 463.956,171.958 464.316,171.628 465.297,170.933 465.551,170.776 467.147,170.738 467.479,170.933 468.513,171.628 468.743,171.825 "/>
</g>
<g id="ID000006" clip-path="url(#ID000001)" >
      <polyline fill="none" fill-opacity="1.00" stroke="#00008f" stroke-width="0.5pt" stroke-opacity="1.00" stroke-dasharray="none" points="467.147,152.334 467.498,152.857 468.202,153.552 468.196,154.248 468.209,154.943 468.319,155.638 468.212,156.333 468.124,157.029 467.560,157.724 467.147,158.104 466.510,157.724 465.764,157.029 465.707,156.333 465.607,155.638 465.701,154.943 465.650,154.248 465.615,153.552 466.618,152.857 467.147,152.334 "/>
</g>
<g id="ID000007" clip-path="url(#ID000001)" >
      <polyline fill="none" fill-opacity="1.00" stroke="#00008f" stroke-width="0.5pt" stroke-opacity="1.00" stroke-dasharray="none" points="465.551,138.373 466.422,138.953 466.769,139.648 466.676,140.343 466.218,141.039 465.551,141.474 464.658,141.734 463.956,141.986 462.360,141.859 462.142,141.734 461.330,141.039 461.538,140.343 462.071,139.648 462.360,139.395 463.169,138.953 463.956,138.576 465.551,138.373 "/>
</g>
<g id="ID000008" clip-path="url(#ID000001)" >
      <polyline fill="none" fill-opacity="1.00" stroke="#00008f" stroke-width="0.5pt" stroke-opacity="1.00" stroke-dasharray="none" points="79.419,247.164 79.805,246.711 80.287,246.016 80.830,245.321 81.015,245.151 81.701,244.625 82.513,243.930 82.610,243.869 83.994,243.235 84.206,243.167 85.801,242.746 86.724,242.540 87.397,242.419 88.993,242.134 90.588,241.847 90.599,241.845 92.184,241.547 93.779,241.235 94.216,241.149 95.375,240.926 96.971,240.637 98.099,240.454 98.566,240.361 100.162,240.098 101.757,239.892 102.958,239.759 103.353,239.711 104.949,239.531 106.544,239.357 108.140,239.172 109.003,239.064 109.735,238.969 111.331,238.751 112.926,238.529 114.176,238.368 114.522,238.323 116.118,238.170 117.713,238.104 119.309,238.177 120.503,238.368 120.904,238.437 122.500,238.906 122.872,239.064 124.096,239.501 124.650,239.759 125.691,240.270 126.000,240.454 127.255,241.149 127.287,241.167 128.356,241.845 128.882,242.191 129.343,242.540 130.253,243.235 130.478,243.407 131.093,243.930 131.935,244.625 132.074,244.755 132.615,245.321 133.264,246.016 133.669,246.542 133.784,246.711 134.169,247.406 134.479,248.101 134.745,248.797 134.943,249.492 135.098,250.187 135.219,250.882 135.265,251.155 135.326,251.578 135.313,252.273 135.265,252.622 135.210,252.968 135.081,253.663 134.889,254.358 134.708,255.054 134.450,255.749 134.137,256.444 133.763,257.139 133.669,257.265 133.189,257.834 132.645,258.530 132.074,259.212 132.061,259.225 131.281,259.920 130.524,260.615 130.478,260.652 129.551,261.310 128.882,261.770 128.482,262.006 127.287,262.700 127.286,262.701 125.860,263.396 125.691,263.479 124.132,264.091 124.096,264.106 122.500,264.560 121.276,264.787 120.904,264.851 119.309,264.977 117.713,264.964 116.118,264.836 115.774,264.787 114.522,264.608 112.926,264.315 111.864,264.091 111.331,263.980 109.735,263.611 108.809,263.396 108.140,263.240 106.544,262.874 105.719,262.701 104.949,262.530 103.353,262.206 102.192,262.006 101.757,261.915 100.162,261.612 98.566,261.359 98.197,261.310 96.971,261.119 95.375,260.915 93.779,260.751 92.184,260.622 92.071,260.615 90.588,260.498 88.993,260.408 87.397,260.338 85.801,260.263 84.206,260.138 82.781,259.920 82.610,259.881 81.078,259.225 81.015,259.199 79.881,258.530 79.419,258.133 79.165,257.834 79.030,257.139 78.684,256.444 78.403,255.749 78.210,255.054 77.921,254.358 77.840,253.663 77.860,252.968 77.919,252.273 78.010,251.578 77.888,250.882 77.939,250.187 78.153,249.492 78.386,248.797 78.705,248.101 79.242,247.406 79.419,247.164 "/>
</g>
<g id="ID000009" clip-path="url(#ID000001)" >
      <polyline fill="none" fill-opacity="1.00" stroke="#00008f" stroke-width="0.5pt" stroke-opacity="1.00" stroke-dasharray="none" points="452.787,81.799 452.805,81.946 452.898,82.641 452.943,83.336 452.949,84.031 452.913,84.726 452.792,85.422 452.787,85.444 452.583,86.117 452.303,86.812 451.900,87.507 451.350,88.202 451.191,88.352 450.450,88.898 449.596,89.407 449.197,89.593 448.000,90.130 447.566,90.288 446.404,90.636 445.174,90.983 444.809,91.089 443.213,91.618 443.064,91.679 441.716,92.374 441.618,92.450 440.934,93.069 440.557,93.764 440.431,94.459 440.622,95.155 441.061,95.850 441.605,96.545 441.618,96.555 442.543,97.240 443.213,97.679 443.667,97.935 444.809,98.547 444.979,98.631 446.047,99.326 446.404,99.890 446.480,100.021 446.404,100.203 446.133,100.716 444.940,101.412 444.809,101.462 443.213,101.875 441.618,102.083 440.945,102.107 440.022,102.141 438.999,102.107 438.426,102.093 436.831,102.001 435.235,101.891 433.640,101.779 432.044,101.671 430.449,101.564 428.853,101.454 428.308,101.412 427.257,101.309 425.662,101.122 424.066,100.892 423.082,100.716 422.471,100.553 420.909,100.021 420.875,100.006 419.703,99.326 419.279,98.935 419.017,98.631 418.651,97.935 418.475,97.240 418.405,96.545 418.464,95.850 418.502,95.155 418.509,94.459 418.524,93.764 418.547,93.069 418.592,92.374 418.609,91.679 418.588,90.983 418.603,90.288 418.671,89.593 418.699,88.898 418.810,88.202 418.908,87.507 419.050,86.812 419.279,86.222 419.329,86.117 419.785,85.422 420.223,84.726 420.875,84.045 420.891,84.031 421.818,83.336 422.471,82.937 423.077,82.641 424.066,82.209 424.798,81.946 425.662,81.592 426.540,81.250 427.257,80.988 428.277,80.555 428.853,80.338 429.799,79.860 430.449,79.375 430.676,79.165 431.357,78.469 431.956,77.774 432.044,77.665 432.490,77.079 433.020,76.384 433.465,75.689 433.640,75.387 433.891,74.993 434.410,74.298 435.014,73.603 435.235,73.337 435.659,72.908 436.429,72.213 436.831,71.768 437.124,71.517 438.100,70.822 438.426,70.609 439.527,70.127 440.022,69.889 441.618,69.501 443.213,69.550 444.809,70.102 444.845,70.127 446.150,70.822 446.404,70.956 447.090,71.517 447.843,72.213 448.000,72.326 448.563,72.908 449.179,73.603 449.596,74.047 449.767,74.298 450.256,74.993 450.728,75.689 451.153,76.384 451.191,76.453 451.445,77.079 451.714,77.774 451.932,78.469 452.163,79.165 452.375,79.860 452.515,80.555 452.699,81.250 452.787,81.799 "/>
</g>
<g id="ID000010" clip-path="url(#ID000001)" >
      <polyline fill="none" fill-opacity="1.00" stroke="#00008f" stroke-width="0.5pt" stroke-opacity="1.00" stroke-dasharray="none" points="452.787,147.584 452.931,147.991 453.172,148.686 453.367,149.381 453.534,150.076 453.621,150.772 453.679,151.467 453.732,152.162 453.747,152.857 453.770,153.552 453.725,154.248 453.684,154.943 453.668,155.638 453.619,156.333 453.560,157.029 453.498,157.724 453.420,158.419 453.333,159.114 453.264,159.809 453.186,160.505 453.091,161.200 453.044,161.895 452.990,162.590 452.919,163.285 452.907,163.981 452.859,164.676 452.834,165.371 452.787,165.850 452.757,166.066 452.731,166.762 452.667,167.457 452.626,168.152 452.629,168.847 452.645,169.542 452.614,170.238 452.607,170.933 452.565,171.628 452.543,172.323 452.535,173.018 452.416,173.714 452.385,174.409 452.238,175.104 452.088,175.799 451.949,176.495 451.803,177.190 451.685,177.885 451.617,178.580 451.637,179.275 451.600,179.971 451.648,180.666 451.632,181.361 451.645,182.056 451.707,182.751 451.791,183.447 451.859,184.142 451.890,184.837 452.069,185.532 452.028,186.227 452.021,186.923 451.942,187.618 451.830,188.313 451.525,189.008 451.285,189.704 451.191,189.997 450.990,190.399 450.352,191.094 449.596,191.731 449.470,191.789 448.078,192.484 448.000,192.513 446.404,192.691 445.068,192.484 444.809,192.429 443.805,191.789 443.213,191.418 442.925,191.094 442.450,190.399 442.231,189.704 441.971,189.008 441.637,188.313 441.618,188.179 441.567,187.618 441.540,186.923 441.554,186.227 441.528,185.532 441.618,185.173 441.745,184.837 441.763,184.142 441.858,183.447 441.947,182.751 441.984,182.056 441.965,181.361 441.885,180.666 441.866,179.971 441.714,179.275 441.618,178.743 441.598,178.580 441.407,177.885 441.122,177.190 440.772,176.495 440.368,175.799 440.022,175.282 439.918,175.104 439.476,174.409 439.071,173.714 438.526,173.018 438.426,172.843 438.098,172.323 437.601,171.628 437.137,170.933 436.831,170.447 436.661,170.238 436.203,169.542 435.870,168.847 435.643,168.152 435.383,167.457 435.238,166.762 435.235,166.753 435.048,166.066 434.884,165.371 434.813,164.676 434.715,163.981 434.594,163.285 434.530,162.590 434.468,161.895 434.395,161.200 434.310,160.505 434.220,159.809 434.144,159.114 434.081,158.419 434.007,157.724 433.924,157.029 433.860,156.333 433.811,155.638 433.842,154.943 433.858,154.248 433.836,153.552 433.791,152.857 433.777,152.162 433.733,151.467 433.640,151.109 433.546,150.772 433.183,150.076 432.562,149.381 432.044,149.039 431.090,148.686 430.449,148.481 428.853,148.188 427.388,147.991 427.257,147.972 425.662,147.681 424.186,147.296 424.066,147.265 422.471,146.699 422.259,146.600 421.068,145.905 420.875,145.785 420.161,145.210 419.445,144.515 419.279,144.301 418.999,143.820 418.697,143.124 418.513,142.429 418.465,141.734 418.461,141.039 418.581,140.343 418.741,139.648 419.067,138.953 419.279,138.630 419.607,138.258 420.399,137.563 420.875,137.280 421.814,136.867 422.471,136.670 424.066,136.336 425.341,136.172 425.662,136.142 427.257,136.076 428.853,136.078 430.449,136.134 431.071,136.172 432.044,136.253 433.640,136.420 435.235,136.643 436.309,136.867 436.831,137.059 437.723,137.563 438.401,138.258 438.426,138.295 438.786,138.953 439.112,139.648 439.411,140.343 439.766,141.039 440.022,141.363 440.331,141.734 441.005,142.429 441.618,142.843 442.194,143.124 443.213,143.492 444.592,143.820 444.809,143.866 446.404,144.164 448.000,144.459 448.265,144.515 449.596,144.885 450.453,145.210 451.191,145.596 451.623,145.905 452.226,146.600 452.648,147.296 452.787,147.584 "/>
</g>
<g id="ID000011" clip-path="url(#ID000001)" >
      <polyline fill="none" fill-opacity="1.00" stroke="#00008f" stroke-width="0.5pt" stroke-opacity="1.00" stroke-dasharray="none" points="95.375,171.077 95.523,170.933 96.295,170.238 96.971,169.569 97.033,169.542 98.566,169.035 100.162,169.200 100.795,169.542 101.757,170.168 101.814,170.238 102.434,170.933 103.057,171.628 103.353,171.984 103.532,172.323 103.841,173.018 104.036,173.714 104.321,174.409 104.473,175.104 104.495,175.799 104.473,176.495 104.467,177.190 104.373,177.885 104.295,178.580 104.197,179.275 104.078,179.971 103.926,180.666 103.805,181.361 103.687,182.056 103.588,182.751 103.506,183.447 103.471,184.142 103.353,184.654 103.286,184.837 103.353,185.277 103.377,185.532 103.353,185.611 103.051,186.227 102.779,186.923 102.425,187.618 101.985,188.313 101.757,188.542 100.872,189.008 100.162,189.366 98.566,189.540 96.971,189.096 96.847,189.008 95.951,188.313 95.430,187.618 95.375,187.520 95.188,186.923 95.034,186.227 94.860,185.532 95.006,184.837 94.912,184.142 94.940,183.447 94.936,182.751 94.894,182.056 94.835,181.361 94.765,180.666 94.641,179.971 94.502,179.275 94.394,178.580 94.278,177.885 94.129,177.190 94.052,176.495 93.938,175.799 93.885,175.104 93.981,174.409 94.234,173.714 94.395,173.018 94.672,172.323 95.029,171.628 95.375,171.077 "/>
</g>
<g id="ID000012" clip-path="url(#ID000001)" >
      <polyline fill="none" fill-opacity="1.00" stroke="#00008f" stroke-width="0.5pt" stroke-opacity="1.00" stroke-dasharray="none" points="95.375,231.870 95.549,231.416 96.477,230.721 96.971,230.422 98.461,230.026 98.566,229.999 99.284,230.026 100.162,230.058 101.757,230.558 102.031,230.721 103.050,231.416 103.353,232.004 103.389,232.112 103.448,232.807 103.353,233.307 103.294,233.502 102.689,234.197 101.888,234.892 101.757,235.024 100.674,235.588 100.162,235.734 98.566,235.764 97.885,235.588 96.971,235.110 96.777,234.892 96.060,234.197 95.462,233.502 95.375,233.206 95.302,232.807 95.317,232.112 95.375,231.870 "/>
</g>
<g id="ID000013" clip-path="url(#ID000001)" >
      <polyline fill="none" fill-opacity="1.00" stroke="#00008f" stroke-width="0.5pt" stroke-opacity="1.00" stroke-dasharray="none" points="95.375,269.858 95.605,269.653 96.596,268.958 96.971,268.841 98.566,268.602 100.162,268.603 101.757,268.825 102.244,268.958 103.353,269.588 103.430,269.653 104.039,270.348 104.361,271.043 104.364,271.739 103.998,272.434 103.404,273.129 103.353,273.183 102.462,273.824 101.757,274.170 100.464,274.520 100.162,274.584 98.566,274.633 97.882,274.520 96.971,274.313 96.038,273.824 95.375,273.227 95.307,273.129 94.877,272.434 94.648,271.739 94.716,271.043 95.020,270.348 95.375,269.858 "/>
</g>
<g id="ID000014" clip-path="url(#ID000001)" >
      <polyline fill="none" fill-opacity="1.00" stroke="#00008f" stroke-width="0.5pt" stroke-opacity="1.00" stroke-dasharray="none" points="96.971,151.746 97.211,151.467 98.020,150.772 98.566,150.393 99.854,150.772 100.162,150.878 100.539,151.467 100.901,152.162 100.958,152.857 101.154,153.552 100.967,154.248 100.977,154.943 100.917,155.638 100.791,156.333 100.659,157.029 100.392,157.724 100.162,158.127 98.674,158.419 98.566,158.433 98.550,158.419 97.994,157.724 97.548,157.029 97.287,156.333 97.016,155.638 96.971,155.435 96.924,154.943 96.900,154.248 96.722,153.552 96.823,152.857 96.830,152.162 96.971,151.746 "/>
</g>
<g id="ID000015" clip-path="url(#ID000001)" >
      <polyline fill="none" fill-opacity="1.00" stroke="#00008f" stroke-width="0.5pt" stroke-opacity="1.00" stroke-dasharray="none" points="430.449,171.665 430.754,172.323 430.968,173.018 430.959,173.714 431.081,174.409 431.071,175.104 431.009,175.799 430.909,176.495 430.838,177.190 430.767,177.885 430.709,178.580 430.675,179.275 430.604,179.971 430.550,180.666 430.519,181.361 430.449,181.911 430.418,182.056 430.324,182.751 430.240,183.447 430.017,184.142 429.725,184.837 429.571,185.532 429.014,186.227 428.853,186.451 428.262,186.923 427.257,187.584 427.122,187.618 425.662,187.936 424.066,187.744 423.811,187.618 422.685,186.923 422.471,186.748 422.126,186.227 421.612,185.532 421.528,184.837 421.297,184.142 421.146,183.447 421.139,182.751 421.126,182.056 421.055,181.361 421.098,180.666 421.137,179.971 421.168,179.275 421.265,178.580 421.324,177.885 421.378,177.190 421.444,176.495 421.508,175.799 421.605,175.104 421.772,174.409 422.093,173.714 422.257,173.018 422.471,172.548 422.641,172.323 423.243,171.628 423.968,170.933 424.066,170.843 425.379,170.238 425.662,170.110 427.257,169.981 428.292,170.238 428.853,170.412 429.596,170.933 430.424,171.628 430.449,171.665 "/>
</g>
<g id="ID000016" clip-path="url(#ID000001)" >
      <polyline fill="none" fill-opacity="1.00" stroke="#00008f" stroke-width="0.5pt" stroke-opacity="1.00" stroke-dasharray="none" points="116.118,151.424 116.797,150.772 117.638,150.076 117.713,150.030 119.309,149.767 120.391,150.076 120.904,150.285 121.339,150.772 121.835,151.467 121.990,152.162 121.971,152.857 122.065,153.552 121.832,154.248 121.530,154.943 121.365,155.638 121.202,156.333 121.083,157.029 120.911,157.724 120.904,157.743 120.243,158.419 119.418,159.114 119.309,159.192 119.100,159.114 117.713,158.533 117.645,158.419 117.286,157.724 117.022,157.029 116.823,156.333 116.588,155.638 116.326,154.943 116.118,154.610 115.998,154.248 115.849,153.552 115.927,152.857 115.948,152.162 116.094,151.467 116.118,151.424 "/>
</g>
<g id="ID000017" clip-path="url(#ID000001)" >
      <polyline fill="none" fill-opacity="1.00" stroke="#00008f" stroke-width="0.5pt" stroke-opacity="1.00" stroke-dasharray="none" points="119.309,180.478 119.514,180.666 119.855,181.361 120.007,182.056 120.228,182.751 120.613,183.447 120.123,184.142 119.531,184.837 119.785,185.532 119.309,185.711 118.858,185.532 119.079,184.837 118.405,184.142 117.751,183.447 118.156,182.751 118.401,182.056 118.578,181.361 119.028,180.666 119.309,180.478 "/>
</g>
<g id="ID000018" clip-path="url(#ID000001)" >
      <polyline fill="none" fill-opacity="1.00" stroke="#00008f" stroke-width="0.5pt" stroke-opacity="1.00" stroke-dasharray="none" points="409.706,152.197 409.985,152.857 410.233,153.552 410.411,154.248 410.588,154.943 410.778,155.638 410.915,156.333 410.980,157.029 411.005,157.724 410.945,158.419 410.866,159.114 410.692,159.809 410.402,160.505 410.147,161.200 409.964,161.895 409.706,162.567 409.690,162.590 408.948,163.285 408.615,163.981 408.219,164.676 408.110,165.053 407.836,165.371 407.396,166.066 407.746,166.762 407.791,167.457 408.009,168.152 408.110,168.308 408.250,168.847 408.564,169.542 408.695,170.238 408.953,170.933 409.144,171.628 409.270,172.323 409.423,173.018 409.422,173.714 409.515,174.409 409.484,175.104 409.422,175.799 409.339,176.495 409.270,177.190 409.152,177.885 409.058,178.580 409.034,179.275 408.916,179.971 408.839,180.666 408.674,181.361 408.560,182.056 408.402,182.751 408.264,183.447 408.110,184.052 408.069,184.142 407.535,184.837 407.468,185.532 406.762,186.227 406.515,186.487 405.236,186.923 404.919,187.002 404.579,186.923 403.324,186.517 403.041,186.227 402.327,185.532 402.262,184.837 401.752,184.142 401.728,184.088 401.572,183.447 401.466,182.751 401.337,182.056 401.237,181.361 401.100,180.666 401.054,179.971 400.968,179.275 400.985,178.580 400.935,177.885 400.879,177.190 400.880,176.495 400.892,175.799 400.931,175.104 401.008,174.409 401.204,173.714 401.327,173.018 401.550,172.323 401.728,171.784 401.814,171.628 402.267,170.933 402.746,170.238 403.063,169.542 403.324,169.139 403.693,168.847 404.280,168.152 404.641,167.457 404.841,166.762 404.919,166.580 405.596,166.066 405.482,165.371 405.343,164.676 404.919,164.132 404.877,163.981 404.774,163.285 404.316,162.590 404.008,161.895 403.803,161.200 403.478,160.505 403.324,160.205 403.205,159.809 403.073,159.114 402.979,158.419 402.905,157.724 402.901,157.029 402.929,156.333 402.989,155.638 403.070,154.943 403.126,154.248 403.197,153.552 403.324,153.050 403.410,152.857 403.719,152.162 404.159,151.467 404.919,150.885 405.365,150.772 406.515,150.515 407.945,150.772 408.110,150.805 409.139,151.467 409.681,152.162 409.706,152.197 "/>
</g>
<g id="ID000019" clip-path="url(#ID000001)" >
      <polyline fill="none" fill-opacity="1.00" stroke="#00008f" stroke-width="0.5pt" stroke-opacity="1.00" stroke-dasharray="none" points="135.265,176.566 135.270,176.495 135.372,175.799 135.521,175.104 135.756,174.409 136.180,173.714 136.444,173.018 136.825,172.323 136.860,172.263 137.592,171.628 138.338,170.933 138.456,170.843 140.051,170.686 140.474,170.933 141.339,171.628 141.647,171.878 141.888,172.323 142.227,173.018 142.438,173.714 142.830,174.409 142.991,175.104 143.082,175.799 143.120,176.495 143.119,177.190 143.074,177.885 143.094,178.580 143.183,179.275 143.155,179.971 143.136,180.666 143.062,181.361 142.966,182.056 142.925,182.751 142.911,183.447 142.809,184.142 142.514,184.837 142.597,185.532 142.115,186.227 141.720,186.923 141.647,187.014 140.411,187.618 140.051,187.752 139.118,187.618 138.456,187.504 137.727,186.923 137.038,186.227 136.860,186.086 136.497,185.532 136.466,184.837 136.116,184.142 135.947,183.447 135.816,182.751 135.676,182.056 135.491,181.361 135.335,180.666 135.265,180.167 135.248,179.971 135.221,179.275 135.244,178.580 135.252,177.885 135.239,177.190 135.265,176.566 "/>
</g>
<g id="ID000020" clip-path="url(#ID000001)" >
      <polyline fill="none" fill-opacity="1.00" stroke="#00008f" stroke-width="0.5pt" stroke-opacity="1.00" stroke-dasharray="none" points="136.860,151.354 137.773,150.772 138.456,150.403 140.051,150.229 141.647,150.690 141.765,150.772 142.631,151.467 143.243,152.095 143.282,152.162 143.535,152.857 143.772,153.552 143.838,154.248 143.877,154.943 143.861,155.638 143.889,156.333 143.857,157.029 143.768,157.724 143.586,158.419 143.331,159.114 143.243,159.373 142.992,159.809 142.465,160.505 141.879,161.200 141.647,161.569 141.134,161.895 140.051,162.439 138.456,162.078 138.268,161.895 137.694,161.200 136.954,160.505 136.860,160.407 136.560,159.809 136.309,159.114 136.009,158.419 135.787,157.724 135.678,157.029 135.642,156.333 135.670,155.638 135.655,154.943 135.712,154.248 135.800,153.552 136.052,152.857 136.321,152.162 136.768,151.467 136.860,151.354 "/>
</g>
<g id="ID000021" clip-path="url(#ID000001)" >
      <polyline fill="none" fill-opacity="1.00" stroke="#00008f" stroke-width="0.5pt" stroke-opacity="1.00" stroke-dasharray="none" points="157.603,171.461 158.119,170.933 159.011,170.238 159.199,170.059 160.794,169.675 162.308,170.238 162.390,170.261 163.268,170.933 163.968,171.628 163.985,171.645 164.396,172.323 164.742,173.018 164.861,173.714 165.103,174.409 165.166,175.104 165.094,175.799 165.041,176.495 164.967,177.190 164.830,177.885 164.675,178.580 164.543,179.275 164.356,179.971 164.169,180.666 163.985,181.222 163.909,181.361 163.458,182.056 163.034,182.751 162.606,183.447 162.390,183.754 161.766,184.142 160.794,184.626 159.199,184.439 158.808,184.142 158.093,183.447 157.603,182.881 157.546,182.751 157.254,182.056 156.965,181.361 156.746,180.666 156.603,179.971 156.469,179.275 156.409,178.580 156.326,177.885 156.278,177.190 156.295,176.495 156.313,175.799 156.303,175.104 156.412,174.409 156.684,173.714 156.801,173.018 157.131,172.323 157.515,171.628 157.603,171.461 "/>
</g>
<g id="ID000022" clip-path="url(#ID000001)" >
      <polyline fill="none" fill-opacity="1.00" stroke="#00008f" stroke-width="0.5pt" stroke-opacity="1.00" stroke-dasharray="none" points="385.772,171.793 386.087,172.323 386.459,173.018 386.521,173.714 386.909,174.409 386.992,175.104 386.941,175.799 386.827,176.495 386.741,177.190 386.660,177.885 386.626,178.580 386.615,179.275 386.498,179.971 386.374,180.666 386.234,181.361 385.972,182.056 385.772,182.570 385.554,182.751 384.671,183.447 384.176,183.737 383.651,183.447 382.640,182.751 382.581,182.710 382.279,182.056 381.965,181.361 381.764,180.666 381.599,179.971 381.436,179.275 381.395,178.580 381.338,177.885 381.235,177.190 381.124,176.495 381.000,175.799 380.985,175.349 380.981,175.104 380.985,175.064 381.120,174.409 381.591,173.714 381.725,173.018 382.175,172.323 382.581,171.744 382.828,171.628 384.171,170.933 384.176,170.931 384.182,170.933 385.462,171.628 385.772,171.793 "/>
</g>
<g id="ID000023" clip-path="url(#ID000001)" >
      <polyline fill="none" fill-opacity="1.00" stroke="#00008f" stroke-width="0.5pt" stroke-opacity="1.00" stroke-dasharray="none" points="382.581,116.609 382.593,116.706 382.638,117.401 382.675,118.097 382.688,118.792 382.693,119.487 382.697,120.182 382.684,120.877 382.643,121.573 382.581,122.077 382.553,122.268 382.389,122.963 382.165,123.658 381.937,124.354 381.564,125.049 381.162,125.744 380.985,126.012 380.638,126.439 379.839,127.134 379.390,127.466 378.802,127.830 377.794,128.334 377.358,128.525 376.199,128.949 375.398,129.220 374.603,129.469 373.120,129.915 373.007,129.947 371.412,130.392 370.599,130.610 369.816,130.837 368.221,131.277 368.100,131.306 366.625,131.690 365.100,132.001 365.029,132.020 363.434,132.290 361.838,132.393 360.243,132.355 358.647,132.219 357.051,132.033 356.823,132.001 355.456,131.855 353.860,131.677 352.265,131.507 350.669,131.352 350.176,131.306 349.074,131.199 347.478,131.047 345.882,130.897 344.287,130.747 342.874,130.610 342.691,130.588 341.096,130.378 339.500,130.147 338.065,129.915 337.904,129.884 336.309,129.541 335.009,129.220 334.713,129.136 333.118,128.618 332.867,128.525 331.522,127.961 331.247,127.830 329.926,127.150 329.899,127.134 328.784,126.439 328.331,126.141 327.781,125.744 326.891,125.049 326.735,124.915 326.146,124.354 325.464,123.658 325.140,123.269 324.913,122.963 324.455,122.268 324.046,121.573 323.705,120.877 323.544,120.488 323.433,120.182 323.262,119.487 323.140,118.792 323.088,118.097 323.119,117.401 323.230,116.706 323.393,116.011 323.544,115.569 323.644,115.316 323.957,114.621 324.347,113.925 324.801,113.230 325.140,112.798 325.371,112.535 326.089,111.840 326.735,111.248 326.861,111.144 327.787,110.449 328.331,110.079 328.855,109.754 329.926,109.132 330.065,109.059 331.489,108.364 331.522,108.349 333.118,107.700 333.205,107.668 334.713,107.160 335.331,106.973 336.309,106.710 337.904,106.328 338.139,106.278 339.500,106.020 341.096,105.752 342.229,105.583 342.691,105.522 344.287,105.335 345.882,105.169 347.478,105.023 349.074,104.897 349.218,104.888 350.669,104.800 352.265,104.719 353.860,104.658 355.456,104.619 357.051,104.607 358.647,104.629 360.243,104.690 361.838,104.797 362.769,104.888 363.434,104.950 365.029,105.145 366.625,105.387 367.703,105.583 368.221,105.680 369.816,106.027 370.833,106.278 371.412,106.427 373.007,106.889 373.265,106.973 374.603,107.450 375.145,107.668 376.199,108.132 376.664,108.364 377.794,109.001 377.884,109.059 378.857,109.754 379.390,110.212 379.631,110.449 380.291,111.144 380.846,111.840 380.985,112.050 381.276,112.535 381.626,113.230 381.976,113.925 382.214,114.621 382.391,115.316 382.499,116.011 382.581,116.609 "/>
</g>
<g id="ID000024" clip-path="url(#ID000001)" >
      <polyline fill="none" fill-opacity="1.00" stroke="#00008f" stroke-width="0.5pt" stroke-opacity="1.00" stroke-dasharray="none" points="167.176,148.532 167.383,147.991 167.726,147.296 168.107,146.600 168.578,145.905 168.772,145.641 169.170,145.210 169.887,144.515 170.368,144.093 170.736,143.820 171.709,143.124 171.963,142.944 172.803,142.429 173.559,141.948 173.952,141.734 175.106,141.039 175.154,141.007 176.420,140.343 176.750,140.135 177.767,139.648 178.346,139.350 179.473,138.953 179.941,138.774 181.537,138.438 183.132,138.344 184.728,138.439 186.324,138.664 187.864,138.953 187.919,138.962 189.515,139.277 191.110,139.586 191.435,139.648 192.706,139.884 194.301,140.157 195.525,140.343 195.897,140.405 197.493,140.663 199.088,140.905 199.996,141.039 200.684,141.156 202.279,141.429 203.875,141.705 204.039,141.734 205.471,142.035 207.066,142.383 207.272,142.429 208.662,142.792 209.863,143.124 210.257,143.253 211.853,143.809 211.880,143.820 213.449,144.512 213.454,144.515 214.710,145.210 215.044,145.413 215.801,145.905 216.640,146.551 216.699,146.600 217.507,147.296 218.181,147.991 218.235,148.055 218.721,148.686 219.243,149.381 219.690,150.076 219.831,150.389 219.986,150.772 220.156,151.467 220.187,152.162 220.130,152.857 220.039,153.552 219.831,154.170 219.800,154.248 219.379,154.943 218.898,155.638 218.276,156.333 218.235,156.370 217.300,157.029 216.640,157.374 215.743,157.724 215.044,157.934 213.449,158.298 212.823,158.419 211.853,158.567 210.257,158.802 208.662,159.047 208.292,159.114 207.066,159.295 205.471,159.574 204.330,159.809 203.875,159.891 202.279,160.229 201.157,160.505 200.684,160.611 199.088,161.015 198.421,161.200 197.493,161.442 195.900,161.895 195.897,161.896 194.301,162.353 193.490,162.590 192.706,162.819 191.117,163.285 191.110,163.287 189.515,163.741 188.621,163.981 187.919,164.183 186.324,164.588 185.874,164.676 184.728,164.942 183.132,165.183 181.537,165.246 179.941,165.083 178.377,164.676 178.346,164.669 176.750,164.068 176.587,163.981 175.212,163.285 175.154,163.258 174.095,162.590 173.559,162.261 173.101,161.895 172.207,161.200 171.963,161.013 171.448,160.505 170.736,159.809 170.368,159.451 170.102,159.114 169.573,158.419 169.050,157.724 168.772,157.350 168.592,157.029 168.220,156.333 167.870,155.638 167.553,154.943 167.300,154.248 167.176,153.863 167.105,153.552 166.975,152.857 166.906,152.162 166.865,151.467 166.848,150.772 166.898,150.076 166.991,149.381 167.133,148.686 167.176,148.532 "/>
</g>
<g id="ID000025" clip-path="url(#ID000001)" >
      <polyline fill="none" fill-opacity="1.00" stroke="#00008f" stroke-width="0.5pt" stroke-opacity="1.00" stroke-dasharray="none" points="366.625,149.732 366.936,150.076 367.406,150.772 367.712,151.467 367.882,152.162 367.907,152.857 368.016,153.552 367.957,154.248 367.852,154.943 367.761,155.638 367.659,156.333 367.558,157.029 367.418,157.724 367.233,158.419 366.981,159.114 366.785,159.809 366.625,160.231 366.458,160.505 365.994,161.200 365.618,161.895 365.174,162.590 365.029,162.759 364.146,163.285 363.673,163.981 363.434,164.173 361.838,164.350 361.120,163.981 360.298,163.285 360.243,163.263 359.480,162.590 358.912,161.895 358.647,161.485 358.529,161.200 358.184,160.505 357.896,159.809 357.695,159.114 357.468,158.419 357.333,157.724 357.252,157.029 357.214,156.333 357.199,155.638 357.192,154.943 357.194,154.248 357.233,153.552 357.415,152.857 357.539,152.162 357.763,151.467 358.099,150.772 358.599,150.076 358.647,150.024 359.547,149.381 360.243,148.992 361.290,148.686 361.838,148.541 363.434,148.485 364.423,148.686 365.029,148.822 366.087,149.381 366.625,149.732 "/>
</g>
<g id="ID000026" clip-path="url(#ID000001)" >
      <polyline fill="none" fill-opacity="1.00" stroke="#00008f" stroke-width="0.5pt" stroke-opacity="1.00" stroke-dasharray="none" points="200.684,173.982 201.190,174.409 200.713,175.104 200.684,175.117 200.668,175.104 200.369,174.409 200.684,173.982 "/>
</g>
<g id="ID000027" clip-path="url(#ID000001)" >
      <polyline fill="none" fill-opacity="1.00" stroke="#00008f" stroke-width="0.5pt" stroke-opacity="1.00" stroke-dasharray="none" points="235.787,293.583 236.036,293.290 236.368,292.595 236.708,291.900 237.267,291.205 237.382,291.099 238.098,290.509 238.715,289.814 238.978,289.605 239.685,289.119 240.574,288.506 240.714,288.424 241.530,287.729 241.992,287.033 242.169,286.767 242.510,286.338 242.928,285.643 242.776,284.948 242.169,284.409 242.023,284.253 241.377,283.557 240.663,282.862 240.574,282.794 239.907,282.167 239.531,281.472 238.978,280.797 238.964,280.776 238.818,280.081 238.762,279.386 238.957,278.691 238.978,278.656 239.450,277.996 240.247,277.300 240.574,277.034 241.225,276.605 242.169,276.107 242.654,275.910 243.765,275.605 245.360,275.296 246.059,275.215 246.956,275.127 248.551,275.071 250.147,275.106 251.661,275.215 251.743,275.222 253.338,275.444 254.934,275.741 255.669,275.910 256.529,276.191 257.611,276.605 258.125,276.853 258.928,277.300 259.721,277.792 260.009,277.996 260.657,278.691 261.067,279.386 261.151,280.081 261.155,280.776 260.806,281.472 260.703,282.167 260.188,282.862 259.821,283.557 259.721,283.763 259.425,284.253 258.884,284.948 258.706,285.643 258.999,286.338 259.343,287.033 259.620,287.729 259.721,287.871 260.044,288.424 260.713,289.119 261.316,289.661 261.462,289.814 261.899,290.509 262.507,291.205 262.912,291.793 262.977,291.900 263.148,292.595 263.307,293.290 263.717,293.985 263.871,294.681 263.875,295.376 263.898,296.071 263.692,296.766 263.544,297.462 263.395,298.157 262.993,298.852 262.912,298.942 262.305,299.547 261.767,300.242 261.316,300.791 261.180,300.938 260.183,301.633 259.721,301.984 259.200,302.328 258.125,302.972 258.026,303.023 257.046,303.718 256.529,303.976 255.491,304.414 254.934,304.616 253.338,305.095 253.280,305.109 251.743,305.535 250.441,305.804 250.147,305.864 248.551,306.062 246.956,306.118 245.360,306.013 244.190,305.804 243.765,305.721 242.169,305.200 241.973,305.109 240.574,304.581 240.232,304.414 239.000,303.718 238.978,303.694 238.489,303.023 237.750,302.328 237.382,302.033 236.958,301.633 236.284,300.938 235.874,300.242 235.787,300.099 235.488,299.547 235.120,298.852 234.918,298.157 234.890,297.462 234.884,296.766 234.850,296.071 235.022,295.376 235.188,294.681 235.472,293.985 235.787,293.583 "/>
</g>
<g id="ID000028" clip-path="url(#ID000001)" >
      <polyline fill="none" fill-opacity="1.00" stroke="#00008f" stroke-width="0.5pt" stroke-opacity="1.00" stroke-dasharray="none" points="307.588,255.967 307.884,256.444 308.133,257.139 308.535,257.834 308.716,258.530 308.794,259.225 308.937,259.920 308.745,260.615 308.552,261.310 308.264,262.006 307.706,262.701 307.588,262.903 307.225,263.396 306.480,264.091 305.993,264.517 305.598,264.787 304.397,265.424 304.252,265.482 302.801,265.959 301.856,266.177 301.206,266.314 299.610,266.523 298.015,266.619 296.419,266.615 294.824,266.525 293.228,266.361 291.946,266.177 291.632,266.129 290.037,265.815 288.630,265.482 288.441,265.428 286.846,264.887 286.592,264.787 285.250,264.116 285.208,264.091 284.040,263.396 283.654,263.089 283.235,262.701 282.205,262.006 282.059,261.840 281.657,261.310 281.215,260.615 280.768,259.920 280.684,259.225 280.617,258.530 280.646,257.834 281.057,257.139 281.312,256.444 281.869,255.749 282.059,255.512 282.484,255.054 283.037,254.358 283.654,253.676 283.668,253.663 284.329,252.968 285.250,252.359 285.401,252.273 286.565,251.578 286.846,251.422 287.981,250.882 288.441,250.633 289.422,250.187 290.037,249.961 291.606,249.492 291.632,249.485 293.228,249.149 294.824,248.924 296.419,248.830 298.015,248.890 299.610,249.134 300.857,249.492 301.206,249.601 302.450,250.187 302.801,250.422 303.301,250.882 304.155,251.578 304.397,251.773 304.869,252.273 305.530,252.968 305.993,253.621 306.016,253.663 306.501,254.358 306.921,255.054 307.418,255.749 307.588,255.967 "/>
</g>
<g id="ID000029" clip-path="url(#ID000001)" >
      <polyline fill="none" fill-opacity="1.00" stroke="#00008f" stroke-width="0.5pt" stroke-opacity="1.00" stroke-dasharray="none" points="304.397,187.940 304.590,188.313 304.545,189.008 304.486,189.704 304.675,190.399 304.397,191.077 304.388,191.094 304.391,191.789 304.133,192.484 304.237,193.180 304.131,193.875 304.054,194.570 303.919,195.265 303.621,195.960 302.801,196.587 302.677,196.656 301.771,197.351 301.206,197.610 299.674,198.046 299.610,198.066 298.015,198.306 296.419,198.305 294.824,198.090 294.654,198.046 293.228,197.741 291.930,197.351 291.632,197.208 290.735,196.656 290.037,196.354 289.268,195.960 288.747,195.265 288.441,194.638 288.412,194.570 288.233,193.875 288.120,193.180 288.267,192.484 287.986,191.789 288.046,191.094 287.721,190.399 288.244,189.704 288.417,189.008 288.441,188.938 288.675,188.313 289.699,187.618 290.037,187.282 290.427,186.923 291.157,186.227 291.632,185.943 292.387,185.532 293.228,185.279 294.824,184.873 295.022,184.837 296.419,184.393 297.886,184.142 298.015,184.106 298.606,184.142 299.610,184.184 301.206,184.698 301.421,184.837 302.801,185.346 303.126,185.532 303.638,186.227 303.923,186.923 304.172,187.618 304.397,187.940 "/>
</g>
<g id="ID000030" clip-path="url(#ID000001)" >
      <polyline fill="none" fill-opacity="1.00" stroke="#00008f" stroke-width="0.5pt" stroke-opacity="1.00" stroke-dasharray="none" points="240.574,181.010 240.895,180.666 241.603,179.971 242.169,179.488 242.561,179.275 243.765,178.751 244.586,178.580 245.360,178.416 246.956,178.400 248.083,178.580 248.551,178.649 250.147,179.086 250.657,179.275 251.743,179.745 252.177,179.971 253.338,180.629 253.396,180.666 254.511,181.361 254.934,181.664 255.445,182.056 256.253,182.751 256.529,183.057 256.866,183.447 257.274,184.142 257.837,184.837 258.125,185.314 258.254,185.532 258.240,186.227 258.146,186.923 258.125,186.964 257.780,187.618 256.952,188.313 256.529,188.537 255.539,189.008 254.934,189.392 254.355,189.704 253.338,190.078 252.231,190.399 251.743,190.524 250.147,190.805 248.551,190.940 246.956,190.915 245.360,190.715 244.095,190.399 243.765,190.305 242.433,189.704 242.169,189.549 241.524,189.008 240.574,188.422 240.444,188.313 239.892,187.618 239.539,186.923 239.339,186.227 239.098,185.532 239.242,184.837 239.362,184.142 239.461,183.447 239.700,182.751 240.010,182.056 240.343,181.361 240.574,181.010 "/>
</g>
<g id="ID000031" clip-path="url(#ID000001)" >
      <polyline fill="none" fill-opacity="1.00" stroke="#00008f" stroke-width="0.5pt" stroke-opacity="1.00" stroke-dasharray="none" points="240.574,261.029 240.851,260.615 241.689,259.920 242.169,259.410 242.386,259.225 243.303,258.530 243.765,258.276 244.808,257.834 245.360,257.470 246.063,257.139 246.956,256.893 248.551,256.624 250.147,256.526 251.743,256.604 253.338,256.869 254.273,257.139 254.934,257.485 255.394,257.834 256.529,258.363 256.802,258.530 257.550,259.225 258.125,259.813 258.208,259.920 258.863,260.615 259.211,261.310 259.721,261.934 259.770,262.006 259.730,262.701 259.721,262.725 259.396,263.396 258.507,264.091 258.125,264.356 257.352,264.787 256.529,265.169 255.658,265.482 254.934,265.648 253.338,265.915 251.743,266.090 250.147,266.176 248.551,266.175 246.956,266.085 245.360,265.902 243.765,265.616 243.227,265.482 242.169,265.040 241.711,264.787 240.704,264.091 240.574,263.994 239.948,263.396 239.715,262.701 239.798,262.006 240.419,261.310 240.574,261.029 "/>
</g>
<g id="ID000032" clip-path="url(#ID000001)" >
      <polyline fill="none" fill-opacity="1.00" stroke="#006fff" stroke-width="0.5pt" stroke-opacity="1.00" stroke-dasharray="none" points="465.551,117.731 465.629,118.097 465.743,118.792 465.838,119.487 465.907,120.182 465.941,120.877 465.921,121.573 465.852,122.268 465.698,122.963 465.551,123.446 465.479,123.658 465.193,124.354 464.770,125.049 464.296,125.744 463.956,126.154 463.688,126.439 462.853,127.134 462.360,127.470 461.773,127.830 460.765,128.345 460.380,128.525 459.169,129.005 458.598,129.220 457.574,129.567 456.521,129.915 455.978,130.080 454.382,130.561 454.211,130.610 452.787,131.022 451.782,131.306 451.191,131.478 449.596,131.903 449.161,132.001 448.000,132.305 446.404,132.624 445.852,132.696 444.809,132.842 443.213,132.938 441.618,132.923 440.022,132.829 438.525,132.696 438.426,132.689 436.831,132.531 435.235,132.365 433.640,132.203 432.044,132.052 431.482,132.001 430.449,131.899 428.853,131.741 427.257,131.586 425.662,131.431 424.406,131.306 424.066,131.265 422.471,131.061 420.875,130.837 419.438,130.610 419.279,130.580 417.684,130.237 416.411,129.915 416.088,129.820 414.493,129.275 414.357,129.220 412.897,128.555 412.842,128.525 411.689,127.830 411.301,127.582 410.688,127.134 409.797,126.439 409.706,126.366 409.011,125.744 408.284,125.049 408.110,124.871 407.664,124.354 407.095,123.658 406.580,122.963 406.515,122.864 406.174,122.268 405.796,121.573 405.459,120.877 405.176,120.182 404.969,119.487 404.919,119.275 404.823,118.792 404.744,118.097 404.761,117.401 404.851,116.706 404.919,116.337 404.991,116.011 405.238,115.316 405.540,114.621 405.930,113.925 406.377,113.230 406.515,113.062 407.008,112.535 407.792,111.840 408.110,111.577 408.694,111.144 409.706,110.476 409.749,110.449 411.038,109.754 411.301,109.626 412.559,109.059 412.897,108.921 414.362,108.364 414.493,108.319 416.088,107.812 416.577,107.668 417.684,107.381 419.279,106.999 419.400,106.973 420.875,106.693 422.471,106.417 423.365,106.278 424.066,106.184 425.662,105.995 427.257,105.826 428.853,105.679 430.087,105.583 430.449,105.557 432.044,105.466 433.640,105.395 435.235,105.346 436.831,105.320 438.426,105.322 440.022,105.352 441.618,105.413 443.213,105.509 444.127,105.583 444.809,105.640 446.404,105.810 448.000,106.015 449.596,106.254 449.734,106.278 451.191,106.548 452.787,106.880 453.189,106.973 454.382,107.287 455.683,107.668 455.978,107.765 457.574,108.350 457.606,108.364 459.091,109.059 459.169,109.099 460.285,109.754 460.765,110.078 461.250,110.449 462.056,111.144 462.360,111.440 462.724,111.840 463.256,112.535 463.751,113.230 463.956,113.532 464.194,113.925 464.536,114.621 464.835,115.316 465.081,116.011 465.299,116.706 465.475,117.401 465.551,117.731 "/>
</g>
<g id="ID000033" clip-path="url(#ID000001)" >
      <polyline fill="none" fill-opacity="1.00" stroke="#006fff" stroke-width="0.5pt" stroke-opacity="1.00" stroke-dasharray="none" points="84.206,250.061 84.509,249.492 84.963,248.797 85.574,248.101 85.801,247.900 86.383,247.406 87.307,246.711 87.397,246.650 88.391,246.016 88.993,245.707 89.810,245.321 90.588,245.002 91.577,244.625 92.184,244.434 93.779,243.969 93.923,243.930 95.375,243.581 96.910,243.235 96.971,243.222 98.566,242.897 100.162,242.591 100.448,242.540 101.757,242.321 103.353,242.069 104.861,241.845 104.949,241.832 106.544,241.620 108.140,241.427 109.735,241.255 110.938,241.149 111.331,241.116 112.926,241.018 114.522,240.969 116.118,240.988 117.713,241.095 118.127,241.149 119.309,241.306 120.904,241.632 121.662,241.845 122.500,242.107 123.582,242.540 124.096,242.759 125.014,243.235 125.691,243.606 126.198,243.930 127.268,244.625 127.287,244.638 128.161,245.321 128.882,245.921 128.983,246.016 129.642,246.711 130.231,247.406 130.478,247.747 130.700,248.101 131.072,248.797 131.364,249.492 131.609,250.187 131.776,250.882 131.886,251.578 131.893,252.273 131.815,252.968 131.691,253.663 131.485,254.358 131.229,255.054 130.906,255.749 130.519,256.444 130.478,256.505 129.980,257.139 129.343,257.834 128.882,258.303 128.622,258.530 127.723,259.225 127.287,259.544 126.682,259.920 125.691,260.484 125.413,260.615 124.096,261.234 123.894,261.310 122.500,261.773 121.559,262.006 120.904,262.162 119.309,262.409 117.713,262.528 116.118,262.531 114.522,262.438 112.926,262.272 111.331,262.058 111.008,262.006 109.735,261.792 108.140,261.499 107.149,261.310 106.544,261.189 104.949,260.861 103.695,260.615 103.353,260.537 101.757,260.171 100.616,259.920 100.162,259.816 98.566,259.467 97.386,259.225 96.971,259.122 95.375,258.747 94.396,258.530 93.779,258.372 92.184,257.977 91.598,257.834 90.588,257.551 89.244,257.139 88.993,257.040 87.602,256.444 87.397,256.336 86.397,255.749 85.801,255.294 85.521,255.054 84.821,254.358 84.383,253.663 84.206,253.201 84.126,252.968 84.004,252.273 84.006,251.578 83.973,250.882 84.143,250.187 84.206,250.061 "/>
</g>
<g id="ID000034" clip-path="url(#ID000001)" >
      <polyline fill="none" fill-opacity="1.00" stroke="#006fff" stroke-width="0.5pt" stroke-opacity="1.00" stroke-dasharray="none" points="448.000,150.250 448.416,150.772 448.836,151.467 449.136,152.162 449.278,152.857 449.439,153.552 449.383,154.248 449.307,154.943 449.276,155.638 449.166,156.333 449.030,157.029 448.853,157.724 448.603,158.419 448.307,159.114 448.055,159.809 448.000,159.934 447.581,160.505 447.001,161.200 446.613,161.895 446.404,162.205 445.791,162.590 444.809,163.042 443.213,162.873 442.772,162.590 441.970,161.895 441.618,161.540 441.433,161.200 440.924,160.505 440.460,159.809 440.091,159.114 440.022,158.995 439.799,158.419 439.565,157.724 439.395,157.029 439.269,156.333 439.174,155.638 439.184,154.943 439.167,154.248 439.164,153.552 439.293,152.857 439.445,152.162 439.700,151.467 440.022,150.814 440.054,150.772 440.711,150.076 441.618,149.450 441.820,149.381 443.213,149.016 444.809,148.995 446.404,149.336 446.502,149.381 447.770,150.076 448.000,150.250 "/>
</g>
<g id="ID000035" clip-path="url(#ID000001)" >
      <polyline fill="none" fill-opacity="1.00" stroke="#006fff" stroke-width="0.5pt" stroke-opacity="1.00" stroke-dasharray="none" points="430.449,140.551 430.751,141.039 430.563,141.734 430.449,141.878 429.293,142.429 428.853,142.519 427.919,142.429 427.257,142.314 426.470,141.734 425.850,141.039 426.314,140.343 427.257,139.768 428.853,139.733 430.197,140.343 430.449,140.551 "/>
</g>
<g id="ID000036" clip-path="url(#ID000001)" >
      <polyline fill="none" fill-opacity="1.00" stroke="#006fff" stroke-width="0.5pt" stroke-opacity="1.00" stroke-dasharray="none" points="379.390,115.377 379.566,116.011 379.724,116.706 379.824,117.401 379.891,118.097 379.905,118.792 379.884,119.487 379.828,120.182 379.731,120.877 379.575,121.573 379.390,122.167 379.352,122.268 379.009,122.963 378.581,123.658 378.082,124.354 377.794,124.666 377.381,125.049 376.524,125.744 376.199,125.971 375.409,126.439 374.603,126.844 373.939,127.134 373.007,127.495 372.020,127.830 371.412,128.020 369.816,128.467 369.583,128.525 368.221,128.848 366.625,129.182 366.411,129.220 365.029,129.458 363.434,129.680 361.838,129.849 360.939,129.915 360.243,129.965 358.647,130.031 357.051,130.056 355.456,130.045 353.860,130.007 352.265,129.944 351.716,129.915 350.669,129.856 349.074,129.741 347.478,129.603 345.882,129.443 344.287,129.259 343.992,129.220 342.691,129.023 341.096,128.747 339.966,128.525 339.500,128.418 337.904,128.005 337.307,127.830 336.309,127.498 335.333,127.134 334.713,126.879 333.754,126.439 333.118,126.115 332.456,125.744 331.522,125.171 331.340,125.049 330.403,124.354 329.926,123.961 329.591,123.658 328.920,122.963 328.331,122.274 328.326,122.268 327.864,121.573 327.480,120.877 327.167,120.182 326.946,119.487 326.803,118.792 326.752,118.097 326.812,117.401 326.973,116.706 327.216,116.011 327.554,115.316 327.957,114.621 328.331,114.090 328.459,113.925 329.094,113.230 329.829,112.535 329.926,112.454 330.734,111.840 331.522,111.291 331.752,111.144 332.959,110.449 333.118,110.366 334.397,109.754 334.713,109.615 336.107,109.059 336.309,108.985 337.904,108.461 338.235,108.364 339.500,108.027 341.022,107.668 341.096,107.653 342.691,107.351 344.287,107.090 345.121,106.973 345.882,106.878 347.478,106.711 349.074,106.576 350.669,106.472 352.265,106.400 353.860,106.360 355.456,106.354 357.051,106.381 358.647,106.443 360.243,106.543 361.838,106.680 363.434,106.857 364.282,106.973 365.029,107.083 366.625,107.364 368.099,107.668 368.221,107.696 369.816,108.109 370.668,108.364 371.412,108.607 372.615,109.059 373.007,109.222 374.126,109.754 374.603,110.012 375.306,110.449 376.199,111.066 376.298,111.144 377.067,111.840 377.731,112.535 377.794,112.610 378.243,113.230 378.704,113.925 379.071,114.621 379.370,115.316 379.390,115.377 "/>
</g>
<g id="ID000037" clip-path="url(#ID000001)" >
      <polyline fill="none" fill-opacity="1.00" stroke="#006fff" stroke-width="0.5pt" stroke-opacity="1.00" stroke-dasharray="none" points="170.368,147.939 170.831,147.296 171.408,146.600 171.963,146.017 172.091,145.905 172.983,145.210 173.559,144.790 174.007,144.515 175.154,143.855 175.229,143.820 176.694,143.124 176.750,143.098 178.346,142.488 178.539,142.429 179.941,142.014 181.231,141.734 181.537,141.666 183.132,141.442 184.728,141.337 186.324,141.329 187.919,141.398 189.515,141.522 191.110,141.683 191.528,141.734 192.706,141.884 194.301,142.114 195.897,142.362 196.299,142.429 197.493,142.651 199.088,142.967 199.836,143.124 200.684,143.326 202.279,143.732 202.606,143.820 203.875,144.218 204.767,144.515 205.471,144.784 206.524,145.210 207.066,145.469 207.938,145.905 208.662,146.318 209.134,146.600 210.123,147.296 210.257,147.408 210.926,147.991 211.582,148.686 211.853,149.052 212.092,149.381 212.472,150.076 212.698,150.772 212.725,151.467 212.583,152.162 212.275,152.857 211.853,153.443 211.770,153.552 211.032,154.248 210.257,154.788 210.029,154.943 208.734,155.638 208.662,155.669 207.102,156.333 207.066,156.346 205.471,156.915 205.162,157.029 203.875,157.438 203.022,157.724 202.279,157.946 200.788,158.419 200.684,158.449 199.088,158.928 198.490,159.114 197.493,159.397 196.095,159.809 195.897,159.865 194.301,160.309 193.591,160.505 192.706,160.738 191.110,161.145 190.872,161.200 189.515,161.507 187.919,161.832 187.520,161.895 186.324,162.083 184.728,162.251 183.132,162.315 181.537,162.250 179.941,162.036 179.348,161.895 178.346,161.640 177.155,161.200 176.750,161.048 175.663,160.505 175.154,160.235 174.527,159.809 173.559,159.139 173.531,159.114 172.778,158.419 172.065,157.724 171.963,157.618 171.505,157.029 171.002,156.333 170.542,155.638 170.368,155.336 170.185,154.943 169.923,154.248 169.696,153.552 169.533,152.857 169.443,152.162 169.412,151.467 169.436,150.772 169.553,150.076 169.743,149.381 170.007,148.686 170.337,147.991 170.368,147.939 "/>
</g>
<g id="ID000038" clip-path="url(#ID000001)" >
      <polyline fill="none" fill-opacity="1.00" stroke="#006fff" stroke-width="0.5pt" stroke-opacity="1.00" stroke-dasharray="none" points="298.015,257.550 298.806,257.834 299.352,258.530 299.286,259.225 299.475,259.920 298.015,260.517 297.446,260.615 296.419,260.787 294.824,260.720 294.372,260.615 293.228,260.347 292.206,259.920 292.180,259.225 292.048,258.530 292.492,257.834 293.228,257.572 294.824,257.281 296.419,257.272 298.015,257.550 "/>
</g>
<g id="ID000039" clip-path="url(#ID000001)" >
      <polyline fill="none" fill-opacity="1.00" stroke="#3fffbf" stroke-width="0.5pt" stroke-opacity="1.00" stroke-dasharray="none" points="462.360,117.124 462.428,117.401 462.560,118.097 462.634,118.792 462.662,119.487 462.642,120.182 462.566,120.877 462.423,121.573 462.360,121.785 462.200,122.268 461.872,122.963 461.459,123.658 460.953,124.354 460.765,124.560 460.266,125.049 459.458,125.744 459.169,125.954 458.418,126.439 457.574,126.910 457.125,127.134 455.978,127.637 455.489,127.830 454.382,128.232 453.498,128.525 452.787,128.745 451.191,129.196 451.098,129.220 449.596,129.582 448.031,129.915 448.000,129.922 446.404,130.199 444.809,130.421 443.213,130.588 442.897,130.610 441.618,130.698 440.022,130.757 438.426,130.772 436.831,130.751 435.235,130.701 433.640,130.628 433.340,130.610 432.044,130.526 430.449,130.398 428.853,130.248 427.257,130.075 425.965,129.915 425.662,129.873 424.066,129.618 422.471,129.326 421.958,129.220 420.875,128.969 419.279,128.546 419.210,128.525 417.684,127.993 417.270,127.830 416.088,127.308 415.738,127.134 414.493,126.462 414.454,126.439 413.391,125.744 412.897,125.394 412.457,125.049 411.635,124.354 411.301,124.041 410.931,123.658 410.325,122.963 409.783,122.268 409.706,122.155 409.343,121.573 408.966,120.877 408.659,120.182 408.437,119.487 408.282,118.792 408.214,118.097 408.273,117.401 408.432,116.706 408.663,116.011 408.994,115.316 409.408,114.621 409.706,114.217 409.946,113.925 410.608,113.230 411.301,112.624 411.413,112.535 412.414,111.840 412.897,111.534 413.569,111.144 414.493,110.666 414.946,110.449 416.088,109.958 416.601,109.754 417.684,109.369 418.631,109.059 419.279,108.868 420.875,108.439 421.188,108.364 422.471,108.088 424.066,107.780 424.727,107.668 425.662,107.528 427.257,107.320 428.853,107.144 430.449,107.000 430.826,106.973 432.044,106.898 433.640,106.827 435.235,106.785 436.831,106.773 438.426,106.790 440.022,106.839 441.618,106.919 442.381,106.973 443.213,107.039 444.809,107.201 446.404,107.400 448.000,107.638 448.172,107.668 449.596,107.944 451.191,108.299 451.445,108.364 452.787,108.745 453.756,109.059 454.382,109.284 455.538,109.754 455.978,109.956 456.923,110.449 457.574,110.832 458.041,111.144 458.966,111.840 459.169,112.015 459.700,112.535 460.337,113.230 460.765,113.747 460.895,113.925 461.323,114.621 461.689,115.316 461.994,116.011 462.246,116.706 462.360,117.124 "/>
</g>
<g id="ID000040" clip-path="url(#ID000001)" >
      <polyline fill="none" fill-opacity="1.00" stroke="#3fffbf" stroke-width="0.5pt" stroke-opacity="1.00" stroke-dasharray="none" points="93.779,248.947 93.917,248.797 94.782,248.101 95.375,247.697 95.835,247.406 96.971,246.810 97.178,246.711 98.566,246.163 98.984,246.016 100.162,245.684 101.601,245.321 101.757,245.284 103.353,244.959 104.949,244.676 105.290,244.625 106.544,244.462 108.140,244.294 109.735,244.172 111.331,244.106 112.926,244.106 114.522,244.185 116.118,244.358 117.650,244.625 117.713,244.637 119.309,245.048 120.127,245.321 120.904,245.610 121.789,246.016 122.500,246.374 123.059,246.711 124.096,247.382 124.127,247.406 124.931,248.101 125.596,248.797 125.691,248.920 126.072,249.492 126.459,250.187 126.699,250.882 126.809,251.578 126.833,252.273 126.760,252.968 126.600,253.663 126.317,254.358 125.897,255.054 125.691,255.342 125.348,255.749 124.647,256.444 124.096,256.894 123.733,257.139 122.620,257.834 122.500,257.896 120.953,258.530 120.904,258.547 119.309,258.971 117.898,259.225 117.713,259.256 116.118,259.407 114.522,259.449 112.926,259.398 111.331,259.272 110.938,259.225 109.735,259.071 108.140,258.810 106.659,258.530 106.544,258.506 104.949,258.134 103.740,257.834 103.353,257.736 101.757,257.310 101.132,257.139 100.162,256.814 99.097,256.444 98.566,256.236 97.362,255.749 96.971,255.564 95.929,255.054 95.375,254.708 94.836,254.358 93.932,253.663 93.779,253.513 93.254,252.968 92.777,252.273 92.574,251.578 92.625,250.882 92.889,250.187 93.312,249.492 93.779,248.947 "/>
</g>
<g id="ID000041" clip-path="url(#ID000001)" >
      <polyline fill="none" fill-opacity="1.00" stroke="#3fffbf" stroke-width="0.5pt" stroke-opacity="1.00" stroke-dasharray="none" points="374.603,114.289 374.850,114.621 375.276,115.316 375.616,116.011 375.877,116.706 376.050,117.401 376.144,118.097 376.133,118.792 376.043,119.487 375.874,120.182 375.617,120.877 375.257,121.573 374.799,122.268 374.603,122.510 374.177,122.963 373.392,123.658 373.007,123.948 372.381,124.354 371.412,124.894 371.091,125.049 369.816,125.592 369.403,125.744 368.221,126.128 367.111,126.439 366.625,126.565 365.029,126.922 363.913,127.134 363.434,127.217 361.838,127.447 360.243,127.631 358.647,127.771 357.683,127.830 357.051,127.865 355.456,127.914 353.860,127.923 352.265,127.892 350.813,127.830 350.669,127.823 349.074,127.702 347.478,127.536 345.882,127.323 344.726,127.134 344.287,127.054 342.691,126.709 341.620,126.439 341.096,126.288 339.500,125.762 339.450,125.744 337.904,125.108 337.776,125.049 336.410,124.354 336.309,124.294 335.325,123.658 334.713,123.212 334.403,122.963 333.652,122.268 333.118,121.680 333.029,121.573 332.563,120.877 332.194,120.182 331.934,119.487 331.780,118.792 331.740,118.097 331.835,117.401 332.049,116.706 332.372,116.011 332.806,115.316 333.118,114.914 333.367,114.621 334.076,113.925 334.713,113.400 334.940,113.230 335.984,112.535 336.309,112.342 337.239,111.840 337.904,111.519 338.766,111.144 339.500,110.858 340.669,110.449 341.096,110.314 342.691,109.866 343.147,109.754 344.287,109.502 345.882,109.201 346.789,109.059 347.478,108.961 349.074,108.779 350.669,108.643 352.265,108.551 353.860,108.502 355.456,108.498 357.051,108.538 358.647,108.623 360.243,108.753 361.838,108.930 362.750,109.059 363.434,109.165 365.029,109.469 366.280,109.754 366.625,109.841 368.221,110.315 368.607,110.449 369.816,110.916 370.327,111.144 371.412,111.689 371.672,111.840 372.747,112.535 373.007,112.730 373.586,113.230 374.290,113.925 374.603,114.289 "/>
</g>
<g id="ID000042" clip-path="url(#ID000001)" >
      <polyline fill="none" fill-opacity="1.00" stroke="#3fffbf" stroke-width="0.5pt" stroke-opacity="1.00" stroke-dasharray="none" points="173.559,151.329 173.637,150.772 173.880,150.076 174.252,149.381 174.748,148.686 175.154,148.204 175.373,147.991 176.223,147.296 176.750,146.929 177.328,146.600 178.346,146.074 178.752,145.905 179.941,145.471 180.861,145.210 181.537,145.029 183.132,144.717 184.703,144.515 184.728,144.512 186.324,144.416 187.919,144.405 189.515,144.469 190.053,144.515 191.110,144.613 192.706,144.832 194.301,145.114 194.749,145.210 195.897,145.492 197.329,145.905 197.493,145.959 199.088,146.553 199.203,146.600 200.589,147.296 200.684,147.352 201.658,147.991 202.279,148.507 202.481,148.686 203.026,149.381 203.381,150.076 203.544,150.772 203.440,151.467 203.155,152.162 202.693,152.857 202.279,153.269 201.986,153.552 201.104,154.248 200.684,154.516 199.994,154.943 199.088,155.410 198.630,155.638 197.493,156.131 197.006,156.333 195.897,156.745 195.097,157.029 194.301,157.287 192.872,157.724 192.706,157.771 191.110,158.179 190.026,158.419 189.515,158.525 187.919,158.783 186.324,158.959 184.728,159.030 183.132,158.976 181.537,158.775 179.975,158.419 179.941,158.410 178.346,157.805 178.186,157.724 176.955,157.029 176.750,156.897 176.058,156.333 175.297,155.638 175.154,155.488 174.738,154.943 174.296,154.248 173.928,153.552 173.694,152.857 173.559,152.173 173.557,152.162 173.543,151.467 173.559,151.329 "/>
</g>
<g id="ID000043" clip-path="url(#ID000001)" >
      <polyline fill="none" fill-opacity="1.00" stroke="#ffef00" stroke-width="0.5pt" stroke-opacity="1.00" stroke-dasharray="none" points="457.574,115.353 457.931,116.011 458.227,116.706 458.440,117.401 458.578,118.097 458.617,118.792 458.570,119.487 458.446,120.182 458.228,120.877 457.916,121.573 457.574,122.160 457.502,122.268 456.932,122.963 456.241,123.658 455.978,123.881 455.343,124.354 454.382,124.968 454.239,125.049 452.854,125.744 452.787,125.774 451.191,126.389 451.042,126.439 449.596,126.893 448.713,127.134 448.000,127.312 446.404,127.655 445.450,127.830 444.809,127.940 443.213,128.167 441.618,128.345 440.022,128.475 439.076,128.525 438.426,128.556 436.831,128.591 435.235,128.584 433.640,128.539 433.382,128.525 432.044,128.446 430.449,128.309 428.853,128.127 427.257,127.899 426.853,127.830 425.662,127.598 424.066,127.232 423.701,127.134 422.471,126.774 421.474,126.439 420.875,126.213 419.778,125.744 419.279,125.510 418.401,125.049 417.684,124.638 417.237,124.354 416.278,123.658 416.088,123.505 415.479,122.963 414.792,122.268 414.493,121.910 414.235,121.573 413.788,120.877 413.438,120.182 413.190,119.487 413.044,118.792 413.006,118.097 413.117,117.401 413.347,116.706 413.680,116.011 414.128,115.316 414.493,114.870 414.716,114.621 415.469,113.925 416.088,113.441 416.384,113.230 417.502,112.535 417.684,112.435 418.859,111.840 419.279,111.651 420.519,111.144 420.875,111.015 422.471,110.490 422.609,110.449 424.066,110.064 425.392,109.754 425.662,109.698 427.257,109.411 428.853,109.168 429.732,109.059 430.449,108.979 432.044,108.842 433.640,108.744 435.235,108.687 436.831,108.670 438.426,108.695 440.022,108.760 441.618,108.868 443.213,109.018 443.549,109.059 444.809,109.229 446.404,109.496 447.694,109.754 448.000,109.823 449.596,110.244 450.267,110.449 451.191,110.768 452.140,111.144 452.787,111.433 453.583,111.840 454.382,112.298 454.743,112.535 455.673,113.230 455.978,113.492 456.423,113.925 457.037,114.621 457.550,115.316 457.574,115.353 "/>
</g>
<g id="ID000044" clip-path="url(#ID000001)" >
      <polyline fill="none" fill-opacity="1.00" stroke="#ffef00" stroke-width="0.5pt" stroke-opacity="1.00" stroke-dasharray="none" points="108.140,250.371 108.617,250.187 109.735,249.930 111.331,249.817 112.926,249.954 113.882,250.187 114.522,250.444 115.170,250.882 115.500,251.578 115.398,252.273 114.749,252.968 114.522,253.096 112.926,253.536 111.331,253.570 109.735,253.297 108.712,252.968 108.140,252.709 107.462,252.273 107.010,251.578 107.338,250.882 108.140,250.371 "/>
</g>
<g id="ID000045" clip-path="url(#ID000001)" >
      <polyline fill="none" fill-opacity="1.00" stroke="#ffef00" stroke-width="0.5pt" stroke-opacity="1.00" stroke-dasharray="none" points="369.816,116.503 369.932,116.706 370.195,117.401 370.313,118.097 370.254,118.792 370.055,119.487 369.816,119.986 369.707,120.182 369.145,120.877 368.403,121.573 368.221,121.713 367.377,122.268 366.625,122.687 366.043,122.963 365.029,123.373 364.190,123.658 363.434,123.879 361.838,124.263 361.364,124.354 360.243,124.546 358.647,124.753 357.051,124.893 355.456,124.968 353.860,124.976 352.265,124.918 350.669,124.791 349.074,124.594 347.644,124.354 347.478,124.321 345.882,123.929 344.981,123.658 344.287,123.421 343.152,122.963 342.691,122.746 341.808,122.268 341.096,121.799 340.793,121.573 340.050,120.877 339.500,120.207 339.482,120.182 339.127,119.487 338.929,118.792 338.890,118.097 339.042,117.401 339.353,116.706 339.500,116.489 339.861,116.011 340.554,115.316 341.096,114.888 341.478,114.621 342.668,113.925 342.691,113.914 344.285,113.230 344.287,113.229 345.882,112.705 346.498,112.535 347.478,112.295 349.074,111.980 350.004,111.840 350.669,111.751 352.265,111.602 353.860,111.519 355.456,111.502 357.051,111.551 358.647,111.668 360.126,111.840 360.243,111.855 361.838,112.139 363.434,112.505 363.539,112.535 365.029,113.024 365.548,113.230 366.625,113.729 366.982,113.925 368.077,114.621 368.221,114.732 368.864,115.316 369.490,116.011 369.816,116.503 "/>
</g>
<g id="ID000046" clip-path="url(#ID000001)" >
      <polyline fill="none" fill-opacity="1.00" stroke="#ffef00" stroke-width="0.5pt" stroke-opacity="1.00" stroke-dasharray="none" points="186.324,151.415 186.502,151.467 186.324,151.541 186.243,151.467 186.324,151.415 "/>
</g>
<g id="ID000047" clip-path="url(#ID000001)" >
      <polyline fill="none" fill-opacity="1.00" stroke="#ff1f00" stroke-width="0.5pt" stroke-opacity="1.00" stroke-dasharray="none" points="452.787,117.773 452.859,118.097 452.855,118.792 452.787,119.131 452.705,119.487 452.409,120.182 451.950,120.877 451.340,121.573 451.191,121.710 450.492,122.268 449.596,122.868 449.431,122.963 448.018,123.658 448.000,123.666 446.404,124.239 446.024,124.354 444.809,124.681 443.213,125.034 443.127,125.049 441.618,125.285 440.022,125.469 438.426,125.589 436.831,125.644 435.235,125.633 433.640,125.557 432.044,125.412 430.449,125.198 429.612,125.049 428.853,124.899 427.257,124.504 426.750,124.354 425.662,123.978 424.871,123.658 424.066,123.291 423.440,122.963 422.471,122.375 422.314,122.268 421.480,121.573 420.875,120.953 420.809,120.877 420.350,120.182 420.037,119.487 419.877,118.792 419.867,118.097 420.055,117.401 420.399,116.706 420.875,116.041 420.899,116.011 421.623,115.316 422.471,114.676 422.553,114.621 423.786,113.925 424.066,113.793 425.416,113.230 425.662,113.139 427.257,112.628 427.598,112.535 428.853,112.231 430.449,111.915 430.933,111.840 432.044,111.688 433.640,111.531 435.235,111.435 436.831,111.401 438.426,111.430 440.022,111.523 441.618,111.681 442.739,111.840 443.213,111.914 444.809,112.244 445.939,112.535 446.404,112.673 447.958,113.230 448.000,113.248 449.368,113.925 449.596,114.056 450.439,114.621 451.191,115.229 451.285,115.316 451.902,116.011 452.367,116.706 452.692,117.401 452.787,117.773 "/>
</g>
<g id="ID000048" clip-path="url(#ID000001)" >
      <polyline fill="none" fill-opacity="1.00" stroke="#7f0000" stroke-width="0.5pt" stroke-opacity="1.00" stroke-dasharray="none" points="443.213,116.729 443.945,117.401 444.333,118.097 444.269,118.792 443.836,119.487 443.213,120.054 443.029,120.182 441.618,120.848 441.529,120.877 440.022,121.269 438.426,121.523 437.553,121.573 436.831,121.607 435.886,121.573 435.235,121.544 433.640,121.307 432.044,120.900 431.983,120.877 430.543,120.182 430.449,120.114 429.778,119.487 429.403,118.792 429.389,118.097 429.828,117.401 430.449,116.861 430.673,116.706 432.044,116.059 432.185,116.011 433.640,115.632 435.235,115.375 436.218,115.316 436.831,115.286 437.738,115.316 438.426,115.344 440.022,115.573 441.618,115.971 441.729,116.011 443.181,116.706 443.213,116.729 "/>
</g>
</g><g id="ID000049" >
  <g transform="translate(271.219,20.664)">
    <g transform="rotate(-0.0)">
      <text x="0.000" y="0.000" font-family="Helvetica" text-anchor="middle" font-size="9pt" fill="#000000" >RANGE-DOPPLER CONTOUR PLOT OF CLUTTER-CANCELLED DATA</text>
    </g>
  </g>
</g>
<g id="ID000050" >
  <g transform="translate(49.500,188.209)">
    <g transform="rotate(-90.0)">
      <text x="0.000" y="0.000" font-family="Helvetica" text-anchor="middle" font-size="9pt" fill="#000000" >range (km)</text>
    </g>
  </g>
</g>
<g id="ID000051" >
  <g transform="translate(271.219,376.396)">
    <g transform="rotate(-0.0)">
      <text x="0.000" y="0.000" font-family="Helvetica" text-anchor="middle" font-size="9pt" fill="#000000" >velocity (m/s)</text>
    </g>
  </g>
</g>
    </g>
    <g>
      <polyline fill="none" stroke="#000000" stroke-width="0.5pt" stroke-dasharray="2.0,2.0" points="475.125,307.195 475.125,307.195 "/>
      <polyline fill="none" stroke="#000000" stroke-width="0.5pt" stroke-dasharray="2.0,2.0" points="475.125,251.578 475.125,251.578 "/>
      <polyline fill="none" stroke="#000000" stroke-width="0.5pt" stroke-dasharray="2.0,2.0" points="475.125,195.960 475.125,195.960 "/>
      <polyline fill="none" stroke="#000000" stroke-width="0.5pt" stroke-dasharray="2.0,2.0" points="475.125,140.343 475.125,140.343 "/>
      <polyline fill="none" stroke="#000000" stroke-width="0.5pt" stroke-dasharray="2.0,2.0" points="475.125,84.726 475.125,84.726 "/>
      <polyline fill="none" stroke="#000000" stroke-width="0.5pt" stroke-dasharray="2.0,2.0" points="475.125,29.109 475.125,29.109 "/>
      <polyline fill="none" stroke="#000000" stroke-width="0.5pt" stroke-dasharray="2.0,2.0" points="475.125,345.431 475.125,29.109 "/>
      <polyline fill="none" stroke="#000000" stroke-width="0.5pt" stroke-dasharray="2.0,2.0" points="109.097,345.431 109.097,345.431 "/>
      <polyline fill="none" stroke="#000000" stroke-width="0.5pt" stroke-dasharray="2.0,2.0" points="163.560,345.431 163.560,345.431 "/>
      <polyline fill="none" stroke="#000000" stroke-width="0.5pt" stroke-dasharray="2.0,2.0" points="218.023,345.431 218.023,345.431 "/>
      <polyline fill="none" stroke="#000000" stroke-width="0.5pt" stroke-dasharray="2.0,2.0" points="272.485,345.431 272.485,345.431 "/>
      <polyline fill="none" stroke="#000000" stroke-width="0.5pt" stroke-dasharray="2.0,2.0" points="326.948,345.431 326.948,345.431 "/>
      <polyline fill="none" stroke="#000000" stroke-width="0.5pt" stroke-dasharray="2.0,2.0" points="381.411,345.431 381.411,345.431 "/>
      <polyline fill="none" stroke="#000000" stroke-width="0.5pt" stroke-dasharray="2.0,2.0" points="435.874,345.431 435.874,345.431 "/>
      <polyline fill="none" stroke="#000000" stroke-width="0.5pt" stroke-dasharray="2.0,2.0" points="68.250,345.431 475.125,345.431 "/>
      <polyline fill="none" stroke="#000000" stroke-width="0.5pt" stroke-dasharray="2.0,2.0" points="109.097,345.431 109.097,29.109 "/>
      <polyline fill="none" stroke="#000000" stroke-width="0.5pt" stroke-dasharray="2.0,2.0" points="163.560,345.431 163.560,29.109 "/>
      <polyline fill="none" stroke="#000000" stroke-width="0.5pt" stroke-dasharray="2.0,2.0" points="218.023,345.431 218.023,29.109 "/>
      <polyline fill="none" stroke="#000000" stroke-width="0.5pt" stroke-dasharray="2.0,2.0" points="272.485,345.431 272.485,29.109 "/>
      <polyline fill="none" stroke="#000000" stroke-width="0.5pt" stroke-dasharray="2.0,2.0" points="326.948,345.431 326.948,29.109 "/>
      <polyline fill="none" stroke="#000000" stroke-width="0.5pt" stroke-dasharray="2.0,2.0" points="381.411,345.431 381.411,29.109 "/>
      <polyline fill="none" stroke="#000000" stroke-width="0.5pt" stroke-dasharray="2.0,2.0" points="435.874,345.431 435.874,29.109 "/>
      <polyline fill="none" stroke="#000000" stroke-width="0.5pt" stroke-dasharray="2.0,2.0" points="68.250,307.195 475.125,307.195 "/>
      <polyline fill="none" stroke="#000000" stroke-width="0.5pt" stroke-dasharray="2.0,2.0" points="68.250,251.578 475.125,251.578 "/>
      <polyline fill="none" stroke="#000000" stroke-width="0.5pt" stroke-dasharray="2.0,2.0" points="68.250,195.960 475.125,195.960 "/>
      <polyline fill="none" stroke="#000000" stroke-width="0.5pt" stroke-dasharray="2.0,2.0" points="68.250,140.343 475.125,140.343 "/>
      <polyline fill="none" stroke="#000000" stroke-width="0.5pt" stroke-dasharray="2.0,2.0" points="68.250,84.726 475.125,84.726 "/>
      <polyline fill="none" stroke="#000000" stroke-width="0.5pt" stroke-dasharray="2.0,2.0" points="68.250,29.109 475.125,29.109 "/>
      <polyline fill="none" stroke="#000000" stroke-width="0.5pt" stroke-dasharray="none" points="109.097,345.431 109.097,341.363 "/>
      <polyline fill="none" stroke="#000000" stroke-width="0.5pt" stroke-dasharray="none" points="163.560,345.431 163.560,341.363 "/>
      <polyline fill="none" stroke="#000000" stroke-width="0.5pt" stroke-dasharray="none" points="218.023,345.431 218.023,341.363 "/>
      <polyline fill="none" stroke="#000000" stroke-width="0.5pt" stroke-dasharray="none" points="272.485,345.431 272.485,341.363 "/>
      <polyline fill="none" stroke="#000000" stroke-width="0.5pt" stroke-dasharray="none" points="326.948,345.431 326.948,341.363 "/>
      <polyline fill="none" stroke="#000000" stroke-width="0.5pt" stroke-dasharray="none" points="381.411,345.431 381.411,341.363 "/>
      <polyline fill="none" stroke="#000000" stroke-width="0.5pt" stroke-dasharray="none" points="435.874,345.431 435.874,341.363 "/>
      <polyline fill="none" stroke="#000000" stroke-width="0.5pt" stroke-dasharray="none" points="68.250,345.431 475.125,345.431 "/>
      <polyline fill="none" stroke="#000000" stroke-width="0.5pt" stroke-dasharray="none" points="109.097,29.109 109.097,33.178 "/>
      <polyline fill="none" stroke="#000000" stroke-width="0.5pt" stroke-dasharray="none" points="163.560,29.109 163.560,33.178 "/>
      <polyline fill="none" stroke="#000000" stroke-width="0.5pt" stroke-dasharray="none" points="218.023,29.109 218.023,33.178 "/>
      <polyline fill="none" stroke="#000000" stroke-width="0.5pt" stroke-dasharray="none" points="272.485,29.109 272.485,33.178 "/>
      <polyline fill="none" stroke="#000000" stroke-width="0.5pt" stroke-dasharray="none" points="326.948,29.109 326.948,33.178 "/>
      <polyline fill="none" stroke="#000000" stroke-width="0.5pt" stroke-dasharray="none" points="381.411,29.109 381.411,33.178 "/>
      <polyline fill="none" stroke="#000000" stroke-width="0.5pt" stroke-dasharray="none" points="435.874,29.109 435.874,33.178 "/>
      <polyline fill="none" stroke="#000000" stroke-width="0.5pt" stroke-dasharray="none" points="68.250,29.109 475.125,29.109 "/>
  <g transform="translate(109.097,362.820)">
    <g transform="rotate(-0.0)">
      <text x="0.000" y="0.000" font-family="Helvetica" text-anchor="middle" font-size="9pt" fill="#000000" >-60</text>
    </g>
  </g>
  <g transform="translate(163.560,362.820)">
    <g transform="rotate(-0.0)">
      <text x="0.000" y="0.000" font-family="Helvetica" text-anchor="middle" font-size="9pt" fill="#000000" >-40</text>
    </g>
  </g>
  <g transform="translate(218.023,362.820)">
    <g transform="rotate(-0.0)">
      <text x="0.000" y="0.000" font-family="Helvetica" text-anchor="middle" font-size="9pt" fill="#000000" >-20</text>
    </g>
  </g>
  <g transform="translate(272.485,362.820)">
    <g transform="rotate(-0.0)">
      <text x="0.000" y="0.000" font-family="Helvetica" text-anchor="middle" font-size="9pt" fill="#000000" >0</text>
    </g>
  </g>
  <g transform="translate(326.948,362.820)">
    <g transform="rotate(-0.0)">
      <text x="0.000" y="0.000" font-family="Helvetica" text-anchor="middle" font-size="9pt" fill="#000000" >20</text>
    </g>
  </g>
  <g transform="translate(381.411,362.820)">
    <g transform="rotate(-0.0)">
      <text x="0.000" y="0.000" font-family="Helvetica" text-anchor="middle" font-size="9pt" fill="#000000" >40</text>
    </g>
  </g>
  <g transform="translate(435.874,362.820)">
    <g transform="rotate(-0.0)">
      <text x="0.000" y="0.000" font-family="Helvetica" text-anchor="middle" font-size="9pt" fill="#000000" >60</text>
    </g>
  </g>
      <polyline fill="none" stroke="#000000" stroke-width="0.5pt" stroke-dasharray="none" points="68.250,307.195 72.319,307.195 "/>
      <polyline fill="none" stroke="#000000" stroke-width="0.5pt" stroke-dasharray="none" points="68.250,251.578 72.319,251.578 "/>
      <polyline fill="none" stroke="#000000" stroke-width="0.5pt" stroke-dasharray="none" points="68.250,195.960 72.319,195.960 "/>
      <polyline fill="none" stroke="#000000" stroke-width="0.5pt" stroke-dasharray="none" points="68.250,140.343 72.319,140.343 "/>
      <polyline fill="none" stroke="#000000" stroke-width="0.5pt" stroke-dasharray="none" points="68.250,84.726 72.319,84.726 "/>
      <polyline fill="none" stroke="#000000" stroke-width="0.5pt" stroke-dasharray="none" points="68.250,29.109 72.319,29.109 "/>
      <polyline fill="none" stroke="#000000" stroke-width="0.5pt" stroke-dasharray="none" points="68.250,345.431 68.250,29.109 "/>
      <polyline fill="none" stroke="#000000" stroke-width="0.5pt" stroke-dasharray="none" points="475.125,307.195 471.056,307.195 "/>
      <polyline fill="none" stroke="#000000" stroke-width="0.5pt" stroke-dasharray="none" points="475.125,251.578 471.056,251.578 "/>
      <polyline fill="none" stroke="#000000" stroke-width="0.5pt" stroke-dasharray="none" points="475.125,195.960 471.056,195.960 "/>
      <polyline fill="none" stroke="#000000" stroke-width="0.5pt" stroke-dasharray="none" points="475.125,140.343 471.056,140.343 "/>
      <polyline fill="none" stroke="#000000" stroke-width="0.5pt" stroke-dasharray="none" points="475.125,84.726 471.056,84.726 "/>
      <polyline fill="none" stroke="#000000" stroke-width="0.5pt" stroke-dasharray="none" points="475.125,29.109 471.056,29.109 "/>
      <polyline fill="none" stroke="#000000" stroke-width="0.5pt" stroke-dasharray="none" points="475.125,345.431 475.125,29.109 "/>
  <g transform="translate(60.112,311.413)">
    <g transform="rotate(-0.0)">
      <text x="0.000" y="0.000" font-family="Helvetica" text-anchor="end" font-size="9pt" fill="#000000" >1</text>
    </g>
  </g>
  <g transform="translate(60.112,255.796)">
    <g transform="rotate(-0.0)">
      <text x="0.000" y="0.000" font-family="Helvetica" text-anchor="end" font-size="9pt" fill="#000000" >2</text>
    </g>
  </g>
  <g transform="translate(60.112,200.179)">
    <g transform="rotate(-0.0)">
      <text x="0.000" y="0.000" font-family="Helvetica" text-anchor="end" font-size="9pt" fill="#000000" >3</text>
    </g>
  </g>
  <g transform="translate(60.112,144.562)">
    <g transform="rotate(-0.0)">
      <text x="0.000" y="0.000" font-family="Helvetica" text-anchor="end" font-size="9pt" fill="#000000" >4</text>
    </g>
  </g>
  <g transform="translate(60.112,88.945)">
    <g transform="rotate(-0.0)">
      <text x="0.000" y="0.000" font-family="Helvetica" text-anchor="end" font-size="9pt" fill="#000000" >5</text>
    </g>
  </g>
  <g transform="translate(60.112,33.328)">
    <g transform="rotate(-0.0)">
      <text x="0.000" y="0.000" font-family="Helvetica" text-anchor="end" font-size="9pt" fill="#000000" >6</text>
    </g>
  </g>
      <polyline fill="none" stroke="#000000" stroke-width="0.5pt" stroke-dasharray="none" points="68.250,345.431 68.250,342.268 "/>
      <polyline fill="none" stroke="#000000" stroke-width="0.5pt" stroke-dasharray="none" points="68.250,345.431 68.250,345.431 "/>
    </g>
  </g>
  </g>
</svg>
